{
  "source": "C:\\Users\\Peter\\Desktop\\stuff\\MIUN\\quantitative_research\\video_compression\\videos\\BVI-HD\\BVI-HD_CDVL_videos\\ORIG\\Fountain_1920x1080_50fps.mp4",
  "output": "C:\\Users\\Peter\\Desktop\\stuff\\MIUN\\quantitative_research\\video_compression\\compressed_videos\\BVI-HD\\av1\\1\\Fountain_1920x1080_50fps_av1.mkv",
  "codec": "av1",
  "ok": "Input #0, mov,mp4,m4a,3gp,3g2,mj2, from 'C:\\Users\\Peter\\Desktop\\stuff\\MIUN\\quantitative_research\\video_compression\\videos\\BVI-HD\\BVI-HD_CDVL_videos\\ORIG\\Fountain_1920x1080_50fps.mp4':\n  Metadata:\n    major_brand     : isom\n    minor_version   : 512\n    compatible_brands: isomiso2avc1mp41\n    encoder         : Lavf54.28.101\n  Duration: 00:00:05.00, start: 0.000000, bitrate: 603457 kb/s\n  Stream #0:0[0x1](und): Video: h264 (High 4:4:4 Predictive) (avc1 / 0x31637661), yuv420p(progressive), 1920x1080, 603453 kb/s, 50 fps, 50 tbr, 50 tbn (default)\n    Metadata:\n      handler_name    : VideoHandler\n      vendor_id       : [0][0][0][0]\n[out#0/matroska @ 00000233b067e9c0] Codec AVOption b:a (set bitrate (in bits/s)) has not been used for any stream. The most likely reason is either wrong type (e.g. a video option with no video streams) or that it is a private option of some decoder which was not actually used for any stream.\nStream mapping:\n  Stream #0:0 -> #0:0 (h264 (native) -> av1 (libsvtav1))\nPress [q] to stop, [?] for help\nSvt[info]: -------------------------------------------\nSvt[info]: SVT [version]:\tSVT-AV1 Encoder Lib v3.1.0-19-g6ecfe8ec\nSvt[info]: SVT [build]  :\tGCC 15.2.0\t 64 bit\nSvt[info]: LIB Build date: Aug 17 2025 11:37:13\nSvt[info]: -------------------------------------------\nSvt[info]: Level of Parallelism: 5\nSvt[info]: Number of PPCS 93\nSvt[info]: [asm level on system : up to avx2]\nSvt[info]: [asm level selected : up to avx2]\nSvt[info]: -------------------------------------------\nSvt[info]: SVT [config]: main profile\ttier (auto)\tlevel (auto)\nSvt[info]: SVT [config]: width / height / fps numerator / fps denominator \t\t: 1920 / 1080 / 50 / 1\nSvt[info]: SVT [config]: bit-depth / color format \t\t\t\t\t: 8 / YUV420\nSvt[info]: SVT [config]: preset / tune / pred struct \t\t\t\t\t: 4 / PSNR / random access\nSvt[info]: SVT [config]: gop size / mini-gop size / key-frame type \t\t\t: 321 / 16 / key frame\nSvt[info]: SVT [config]: BRC mode / target bitrate (kbps)\t\t\t\t: VBR / 1000 \nSvt[info]: SVT [config]: AQ mode / Variance Boost \t\t\t\t\t: 2 / 0\nSvt[info]: SVT [config]: sharpness / luminance-based QP bias \t\t\t\t: 0 / 0\nSvt[info]: SVT [config]: QP scale compress strength \t\t\t\t\t: 0\nSvt[info]: -------------------------------------------\nOutput #0, matroska, to 'C:\\Users\\Peter\\Desktop\\stuff\\MIUN\\quantitative_research\\video_compression\\compressed_videos\\BVI-HD\\av1\\1\\Fountain_1920x1080_50fps_av1.mkv':\n  Metadata:\n    major_brand     : isom\n    minor_version   : 512\n    compatible_brands: isomiso2avc1mp41\n    encoder         : Lavf62.3.100\n  Stream #0:0(und): Video: av1 (AV01 / 0x31305641), yuv420p(tv, progressive), 1920x1080, q=2-31, 1000 kb/s, 50 fps, 1k tbn (default)\n    Metadata:\n      encoder         : Lavc62.11.100 libsvtav1\n      handler_name    : VideoHandler\n      vendor_id       : [0][0][0][0]\n    Side data:\n      cpb: bitrate max/min/avg: 0/0/1000000 buffer size: 1000000 vbv_delay: N/A\nframe=    0 fps=0.0 q=0.0 size=       0KiB time=N/A bitrate=N/A speed=N/A elapsed=0:00:01.57    \nframe=    0 fps=0.0 q=0.0 size=       0KiB time=N/A bitrate=N/A speed=N/A elapsed=0:00:02.17    \nframe=    0 fps=0.0 q=0.0 size=       0KiB time=N/A bitrate=N/A speed=N/A elapsed=0:00:02.74    \nframe=    0 fps=0.0 q=0.0 size=       0KiB time=N/A bitrate=N/A speed=N/A elapsed=0:00:03.34    \nframe=    0 fps=0.0 q=0.0 size=       0KiB time=N/A bitrate=N/A speed=N/A elapsed=0:00:03.88    \nframe=    0 fps=0.0 q=0.0 size=       0KiB time=N/A bitrate=N/A speed=N/A elapsed=0:00:04.43    \nframe=    1 fps=0.2 q=47.0 size=       1KiB time=00:00:00.00 bitrate=N/A speed=   0x elapsed=0:00:04.95    \nframe=    2 fps=0.4 q=63.0 size=       1KiB time=00:00:00.02 bitrate= 285.2kbits/s speed=0.00366x elapsed=0:00:05.46    \nframe=    8 fps=1.3 q=59.0 size=       1KiB time=00:00:00.12 bitrate=  47.5kbits/s speed=0.02x elapsed=0:00:06.01    \nframe=   11 fps=1.7 q=57.0 size=       1KiB time=00:00:00.20 bitrate=  28.5kbits/s speed=0.0302x elapsed=0:00:06.63    \nframe=   17 fps=2.4 q=49.0 size=       1KiB time=00:00:00.32 bitrate=  17.8kbits/s speed=0.0446x elapsed=0:00:07.17    \nframe=   21 fps=2.7 q=58.0 size=       1KiB time=00:00:00.40 bitrate=  14.3kbits/s speed=0.0519x elapsed=0:00:07.70    \nframe=   24 fps=2.9 q=53.0 size=       1KiB time=00:00:00.46 bitrate=  12.4kbits/s speed=0.0558x elapsed=0:00:08.24    \nframe=   27 fps=3.1 q=56.0 size=       1KiB time=00:00:00.52 bitrate=  11.0kbits/s speed=0.0591x elapsed=0:00:08.79    \nframe=   31 fps=3.3 q=56.0 size=       1KiB time=00:00:00.60 bitrate=   9.5kbits/s speed=0.0642x elapsed=0:00:09.35    \nframe=   35 fps=3.5 q=54.0 size=       1KiB time=00:00:00.68 bitrate=   8.4kbits/s speed=0.0687x elapsed=0:00:09.89    \nframe=   38 fps=3.6 q=54.0 size=       1KiB time=00:00:00.74 bitrate=   7.7kbits/s speed=0.071x elapsed=0:00:10.41    \nframe=   40 fps=3.6 q=54.0 size=       1KiB time=00:00:00.76 bitrate=   7.5kbits/s speed=0.0692x elapsed=0:00:10.98    \nframe=   43 fps=3.7 q=56.0 size=       1KiB time=00:00:00.84 bitrate=   6.8kbits/s speed=0.0727x elapsed=0:00:11.54    \nframe=   46 fps=3.8 q=54.0 size=       1KiB time=00:00:00.90 bitrate=   6.3kbits/s speed=0.0742x elapsed=0:00:12.13    \nframe=   51 fps=4.0 q=56.0 size=       1KiB time=00:00:00.98 bitrate=   5.8kbits/s speed=0.0773x elapsed=0:00:12.67    \nframe=   54 fps=4.1 q=55.0 size=       1KiB time=00:00:01.06 bitrate=   5.4kbits/s speed=0.0802x elapsed=0:00:13.22    \nframe=   56 fps=4.1 q=55.0 size=       1KiB time=00:00:01.10 bitrate=   5.2kbits/s speed=0.0796x elapsed=0:00:13.81    \nframe=   59 fps=4.1 q=56.0 size=       1KiB time=00:00:01.16 bitrate=   4.9kbits/s speed=0.0805x elapsed=0:00:14.40    \nframe=   64 fps=4.3 q=54.0 size=       1KiB time=00:00:01.26 bitrate=   4.5kbits/s speed=0.0845x elapsed=0:00:14.91    \nframe=   67 fps=4.3 q=58.0 size=       1KiB time=00:00:01.32 bitrate=   4.3kbits/s speed=0.0855x elapsed=0:00:15.44    \nframe=   71 fps=4.4 q=57.0 size=       1KiB time=00:00:01.40 bitrate=   4.1kbits/s speed=0.0876x elapsed=0:00:15.98    \nframe=   74 fps=4.5 q=54.0 size=       1KiB time=00:00:01.46 bitrate=   3.9kbits/s speed=0.0883x elapsed=0:00:16.53    \nframe=   79 fps=4.6 q=55.0 size=       1KiB time=00:00:01.56 bitrate=   3.7kbits/s speed=0.0915x elapsed=0:00:17.05    \nframe=   82 fps=4.7 q=52.0 size=       1KiB time=00:00:01.60 bitrate=   3.6kbits/s speed=0.0909x elapsed=0:00:17.59    \nframe=   86 fps=4.7 q=53.0 size=       1KiB time=00:00:01.68 bitrate=   3.4kbits/s speed=0.0925x elapsed=0:00:18.16    \nframe=   87 fps=4.7 q=55.0 size=       1KiB time=00:00:01.72 bitrate=   3.3kbits/s speed=0.092x elapsed=0:00:18.70    \nframe=   91 fps=4.7 q=55.0 size=       1KiB time=00:00:01.80 bitrate=   3.2kbits/s speed=0.0935x elapsed=0:00:19.25    \nframe=   95 fps=4.8 q=56.0 size=       1KiB time=00:00:01.88 bitrate=   3.0kbits/s speed=0.0948x elapsed=0:00:19.83    \nframe=   98 fps=4.8 q=54.0 size=       1KiB time=00:00:01.94 bitrate=   2.9kbits/s speed=0.095x elapsed=0:00:20.41    \nframe=  102 fps=4.9 q=54.0 size=       1KiB time=00:00:02.02 bitrate=   2.8kbits/s speed=0.0964x elapsed=0:00:20.95    \nframe=  104 fps=4.8 q=55.0 size=       1KiB time=00:00:02.06 bitrate=   2.8kbits/s speed=0.0957x elapsed=0:00:21.51    \nframe=  107 fps=4.8 q=56.0 size=       1KiB time=00:00:02.12 bitrate=   2.7kbits/s speed=0.096x elapsed=0:00:22.09    \nframe=  110 fps=4.9 q=55.0 size=       1KiB time=00:00:02.18 bitrate=   2.6kbits/s speed=0.0963x elapsed=0:00:22.63    \nframe=  115 fps=5.0 q=56.0 size=       1KiB time=00:00:02.28 bitrate=   2.5kbits/s speed=0.0983x elapsed=0:00:23.19    \nframe=  118 fps=5.0 q=56.0 size=       1KiB time=00:00:02.34 bitrate=   2.4kbits/s speed=0.0986x elapsed=0:00:23.72    \nframe=  120 fps=4.9 q=54.0 size=       1KiB time=00:00:02.38 bitrate=   2.4kbits/s speed=0.0981x elapsed=0:00:24.26    \nframe=  124 fps=5.0 q=54.0 size=       1KiB time=00:00:02.46 bitrate=   2.3kbits/s speed=0.0992x elapsed=0:00:24.78    \nframe=  131 fps=5.2 q=57.0 size=       1KiB time=00:00:02.60 bitrate=   2.2kbits/s speed=0.103x elapsed=0:00:25.30    \nframe=  135 fps=5.2 q=56.0 size=       1KiB time=00:00:02.68 bitrate=   2.1kbits/s speed=0.104x elapsed=0:00:25.84    \nframe=  138 fps=5.2 q=54.0 size=       1KiB time=00:00:02.74 bitrate=   2.1kbits/s speed=0.104x elapsed=0:00:26.45    \nframe=  142 fps=5.3 q=54.0 size=       1KiB time=00:00:02.82 bitrate=   2.0kbits/s speed=0.104x elapsed=0:00:27.01    \nframe=  147 fps=5.3 q=55.0 size=       1KiB time=00:00:02.92 bitrate=   2.0kbits/s speed=0.106x elapsed=0:00:27.63    \nframe=  149 fps=5.3 q=56.0 size=       1KiB time=00:00:02.96 bitrate=   1.9kbits/s speed=0.105x elapsed=0:00:28.24    \nframe=  151 fps=5.2 q=55.0 size=       1KiB time=00:00:03.00 bitrate=   1.9kbits/s speed=0.104x elapsed=0:00:28.86    \nframe=  155 fps=5.2 q=56.0 size=       1KiB time=00:00:03.08 bitrate=   1.9kbits/s speed=0.104x elapsed=0:00:29.56    \nframe=  157 fps=5.2 q=55.0 size=       1KiB time=00:00:03.12 bitrate=   1.8kbits/s speed=0.103x elapsed=0:00:30.17    \nframe=  161 fps=5.2 q=44.0 size=       1KiB time=00:00:03.20 bitrate=   1.8kbits/s speed=0.104x elapsed=0:00:30.75    \nframe=  165 fps=5.3 q=57.0 size=       1KiB time=00:00:03.28 bitrate=   1.7kbits/s speed=0.104x elapsed=0:00:31.39    \nframe=  169 fps=5.3 q=46.0 size=       1KiB time=00:00:03.36 bitrate=   1.7kbits/s speed=0.105x elapsed=0:00:31.97    \nframe=  173 fps=5.3 q=57.0 size=       1KiB time=00:00:03.44 bitrate=   1.7kbits/s speed=0.106x elapsed=0:00:32.57    \nframe=  177 fps=5.3 q=42.0 size=       1KiB time=00:00:03.52 bitrate=   1.6kbits/s speed=0.106x elapsed=0:00:33.15    \nframe=  181 fps=5.4 q=55.0 size=       1KiB time=00:00:03.60 bitrate=   1.6kbits/s speed=0.107x elapsed=0:00:33.74    \nframe=  185 fps=5.4 q=47.0 size=       1KiB time=00:00:03.68 bitrate=   1.6kbits/s speed=0.107x elapsed=0:00:34.31    \nframe=  189 fps=5.4 q=55.0 size=       1KiB time=00:00:03.76 bitrate=   1.5kbits/s speed=0.108x elapsed=0:00:34.88    \nframe=  193 fps=5.4 q=45.0 size=       1KiB time=00:00:03.80 bitrate=   1.5kbits/s speed=0.107x elapsed=0:00:35.42    \nframe=  197 fps=5.5 q=55.0 size=       1KiB time=00:00:03.92 bitrate=   1.5kbits/s speed=0.109x elapsed=0:00:35.99    \nframe=  201 fps=5.5 q=46.0 size=       1KiB time=00:00:04.00 bitrate=   1.4kbits/s speed=0.11x elapsed=0:00:36.52    \nframe=  205 fps=5.5 q=56.0 size=       1KiB time=00:00:04.08 bitrate=   1.4kbits/s speed=0.11x elapsed=0:00:37.08    \nframe=  213 fps=5.7 q=56.0 size=       1KiB time=00:00:04.24 bitrate=   1.3kbits/s speed=0.113x elapsed=0:00:37.61    \nframe=  217 fps=5.7 q=47.0 size=       1KiB time=00:00:04.32 bitrate=   1.3kbits/s speed=0.113x elapsed=0:00:38.14    \nframe=  221 fps=5.7 q=56.0 size=       1KiB time=00:00:04.40 bitrate=   1.3kbits/s speed=0.114x elapsed=0:00:38.69    \nframe=  229 fps=5.8 q=57.0 size=       1KiB time=00:00:04.56 bitrate=   1.3kbits/s speed=0.116x elapsed=0:00:39.20    \nframe=  233 fps=5.9 q=51.0 size=       1KiB time=00:00:04.64 bitrate=   1.2kbits/s speed=0.117x elapsed=0:00:39.73    \nframe=  237 fps=5.9 q=58.0 size=       1KiB time=00:00:04.72 bitrate=   1.2kbits/s speed=0.117x elapsed=0:00:40.26    \n[out#0/matroska @ 00000233b067e9c0] video:561KiB audio:0KiB subtitle:0KiB other streams:0KiB global headers:0KiB muxing overhead: 0.329667%\nframe=  250 fps=6.1 q=63.0 Lsize=     563KiB time=00:00:04.98 bitrate= 926.0kbits/s speed=0.122x elapsed=0:00:40.71    \n",
  "seconds": 41.29622173309326,
  "probe_out": {}
}